<?xml version="1.0" encoding="us-ascii" standalone="no"?><svg xmlns="http://www.w3.org/2000/svg" xmlns:xlink="http://www.w3.org/1999/xlink" contentStyleType="text/css" height="1255px" preserveAspectRatio="none" style="width:1208px;height:1255px;background:#FFFFFF;" version="1.1" viewBox="0 0 1208 1255" width="1208px" zoomAndPan="magnify"><defs/><g><!--class users--><g id="elem_users"><rect codeLine="1" fill="#F1F1F1" height="171.2656" id="users" rx="2.5" ry="2.5" style="stroke:#181818;stroke-width:0.5;" width="219" x="538.21" y="381"/><ellipse cx="625.96" cy="397" fill="#ADD1B2" rx="11" ry="11" style="stroke:#181818;stroke-width:1.0;"/><path d="M624.8194,397.7969 L624.8194,400.2969 L629.1475,400.2969 L629.1475,399.375 Q629.1475,398.7656 629.3819,398.5 Q629.6319,398.2344 630.0069,398.2344 Q630.3819,398.2344 630.6163,398.5 Q630.8506,398.7656 630.8506,399.375 L630.8506,402 L622.8506,402 Q622.2256,402 621.96,401.7656 Q621.71,401.5313 621.71,401.1406 Q621.71,400.7656 621.9756,400.5313 Q622.2413,400.2969 622.8506,400.2969 L623.1163,400.2969 L623.1163,393.6406 L622.8506,393.6406 Q622.2256,393.6406 621.96,393.4063 Q621.71,393.1719 621.71,392.7813 Q621.71,392.4063 621.96,392.1719 Q622.2256,391.9375 622.8506,391.9375 L630.4756,391.9375 L630.4756,394.5313 Q630.4756,395.1406 630.2413,395.4063 Q630.0225,395.6563 629.6319,395.6563 Q629.2569,395.6563 629.0225,395.4063 Q628.7881,395.1406 628.7881,394.5313 L628.7881,393.6406 L624.8194,393.6406 L624.8194,396.0938 L626.3038,396.0938 Q626.3038,395.4375 626.4288,395.25 Q626.6944,394.8438 627.1631,394.8438 Q627.5381,394.8438 627.7725,395.1094 Q628.0069,395.3594 628.0069,395.9688 L628.0069,397.9375 Q628.0069,398.4844 627.8819,398.6719 Q627.6163,399.0625 627.1631,399.0625 Q626.6944,399.0625 626.4288,398.6563 Q626.3038,398.4688 626.3038,397.7969 L624.8194,397.7969 Z " fill="#000000"/><text fill="#000000" font-family="sans-serif" font-size="14" lengthAdjust="spacing" textLength="35" x="646.46" y="402.7285">users</text><line style="stroke:#181818;stroke-width:0.5;" x1="539.21" x2="756.21" y1="413" y2="413"/><ellipse cx="549.21" cy="427.3047" fill="none" rx="3" ry="3" style="stroke:#038048;stroke-width:1.0;"/><text fill="#000000" font-family="sans-serif" font-size="14" lengthAdjust="spacing" textLength="70" x="558.21" y="431.5332">id: INT [PK]</text><line style="stroke:#181818;stroke-width:1.0;" x1="539.21" x2="756.21" y1="438.6094" y2="438.6094"/><text fill="#000000" font-family="sans-serif" font-size="14" lengthAdjust="spacing" textLength="163" x="544.21" y="457.1426">username: VARCHAR(50)</text><text fill="#000000" font-family="sans-serif" font-size="14" lengthAdjust="spacing" textLength="141" x="544.21" y="474.752">email: VARCHAR(100)</text><text fill="#000000" font-family="sans-serif" font-size="14" lengthAdjust="spacing" textLength="207" x="544.21" y="492.3613">password_hash: VARCHAR(255)</text><text fill="#000000" font-family="sans-serif" font-size="14" lengthAdjust="spacing" textLength="198" x="544.21" y="509.9707">profile_picture: VARCHAR(255)</text><text fill="#000000" font-family="sans-serif" font-size="14" lengthAdjust="spacing" textLength="102" x="544.21" y="527.5801">role_id: INT [FK]</text><text fill="#000000" font-family="sans-serif" font-size="14" lengthAdjust="spacing" textLength="159" x="544.21" y="545.1895">family_group_id: INT [FK]</text></g><!--class roles--><g id="elem_roles"><rect codeLine="12" fill="#F1F1F1" height="83.2188" id="roles" rx="2.5" ry="2.5" style="stroke:#181818;stroke-width:0.5;" width="179" x="659.21" y="656"/><ellipse cx="728.96" cy="672" fill="#ADD1B2" rx="11" ry="11" style="stroke:#181818;stroke-width:1.0;"/><path d="M727.8194,672.7969 L727.8194,675.2969 L732.1475,675.2969 L732.1475,674.375 Q732.1475,673.7656 732.3819,673.5 Q732.6319,673.2344 733.0069,673.2344 Q733.3819,673.2344 733.6163,673.5 Q733.8506,673.7656 733.8506,674.375 L733.8506,677 L725.8506,677 Q725.2256,677 724.96,676.7656 Q724.71,676.5313 724.71,676.1406 Q724.71,675.7656 724.9756,675.5313 Q725.2413,675.2969 725.8506,675.2969 L726.1163,675.2969 L726.1163,668.6406 L725.8506,668.6406 Q725.2256,668.6406 724.96,668.4063 Q724.71,668.1719 724.71,667.7813 Q724.71,667.4063 724.96,667.1719 Q725.2256,666.9375 725.8506,666.9375 L733.4756,666.9375 L733.4756,669.5313 Q733.4756,670.1406 733.2413,670.4063 Q733.0225,670.6563 732.6319,670.6563 Q732.2569,670.6563 732.0225,670.4063 Q731.7881,670.1406 731.7881,669.5313 L731.7881,668.6406 L727.8194,668.6406 L727.8194,671.0938 L729.3038,671.0938 Q729.3038,670.4375 729.4288,670.25 Q729.6944,669.8438 730.1631,669.8438 Q730.5381,669.8438 730.7725,670.1094 Q731.0069,670.3594 731.0069,670.9688 L731.0069,672.9375 Q731.0069,673.4844 730.8819,673.6719 Q730.6163,674.0625 730.1631,674.0625 Q729.6944,674.0625 729.4288,673.6563 Q729.3038,673.4688 729.3038,672.7969 L727.8194,672.7969 Z " fill="#000000"/><text fill="#000000" font-family="sans-serif" font-size="14" lengthAdjust="spacing" textLength="31" x="749.46" y="677.7285">roles</text><line style="stroke:#181818;stroke-width:0.5;" x1="660.21" x2="837.21" y1="688" y2="688"/><ellipse cx="670.21" cy="702.3047" fill="none" rx="3" ry="3" style="stroke:#038048;stroke-width:1.0;"/><text fill="#000000" font-family="sans-serif" font-size="14" lengthAdjust="spacing" textLength="70" x="679.21" y="706.5332">id: INT [PK]</text><line style="stroke:#181818;stroke-width:1.0;" x1="660.21" x2="837.21" y1="713.6094" y2="713.6094"/><text fill="#000000" font-family="sans-serif" font-size="14" lengthAdjust="spacing" textLength="167" x="665.21" y="732.1426">role_name: VARCHAR(50)</text></g><!--class family_groups--><g id="elem_family_groups"><rect codeLine="18" fill="#F1F1F1" height="83.2188" id="family_groups" rx="2.5" ry="2.5" style="stroke:#181818;stroke-width:0.5;" width="155" x="469.21" y="656"/><ellipse cx="499.96" cy="672" fill="#ADD1B2" rx="11" ry="11" style="stroke:#181818;stroke-width:1.0;"/><path d="M498.8194,672.7969 L498.8194,675.2969 L503.1475,675.2969 L503.1475,674.375 Q503.1475,673.7656 503.3819,673.5 Q503.6319,673.2344 504.0069,673.2344 Q504.3819,673.2344 504.6163,673.5 Q504.8506,673.7656 504.8506,674.375 L504.8506,677 L496.8506,677 Q496.2256,677 495.96,676.7656 Q495.71,676.5313 495.71,676.1406 Q495.71,675.7656 495.9756,675.5313 Q496.2413,675.2969 496.8506,675.2969 L497.1163,675.2969 L497.1163,668.6406 L496.8506,668.6406 Q496.2256,668.6406 495.96,668.4063 Q495.71,668.1719 495.71,667.7813 Q495.71,667.4063 495.96,667.1719 Q496.2256,666.9375 496.8506,666.9375 L504.4756,666.9375 L504.4756,669.5313 Q504.4756,670.1406 504.2413,670.4063 Q504.0225,670.6563 503.6319,670.6563 Q503.2569,670.6563 503.0225,670.4063 Q502.7881,670.1406 502.7881,669.5313 L502.7881,668.6406 L498.8194,668.6406 L498.8194,671.0938 L500.3038,671.0938 Q500.3038,670.4375 500.4288,670.25 Q500.6944,669.8438 501.1631,669.8438 Q501.5381,669.8438 501.7725,670.1094 Q502.0069,670.3594 502.0069,670.9688 L502.0069,672.9375 Q502.0069,673.4844 501.8819,673.6719 Q501.6163,674.0625 501.1631,674.0625 Q500.6944,674.0625 500.4288,673.6563 Q500.3038,673.4688 500.3038,672.7969 L498.8194,672.7969 Z " fill="#000000"/><text fill="#000000" font-family="sans-serif" font-size="14" lengthAdjust="spacing" textLength="88" x="517.46" y="677.7285">family_groups</text><line style="stroke:#181818;stroke-width:0.5;" x1="470.21" x2="623.21" y1="688" y2="688"/><ellipse cx="480.21" cy="702.3047" fill="none" rx="3" ry="3" style="stroke:#038048;stroke-width:1.0;"/><text fill="#000000" font-family="sans-serif" font-size="14" lengthAdjust="spacing" textLength="70" x="489.21" y="706.5332">id: INT [PK]</text><line style="stroke:#181818;stroke-width:1.0;" x1="470.21" x2="623.21" y1="713.6094" y2="713.6094"/><text fill="#000000" font-family="sans-serif" font-size="14" lengthAdjust="spacing" textLength="143" x="475.21" y="732.1426">name: VARCHAR(100)</text></g><!--class recipes--><g id="elem_recipes"><rect codeLine="24" fill="#F1F1F1" height="171.2656" id="recipes" rx="2.5" ry="2.5" style="stroke:#181818;stroke-width:0.5;" width="148" x="218.71" y="612"/><ellipse cx="265.46" cy="628" fill="#ADD1B2" rx="11" ry="11" style="stroke:#181818;stroke-width:1.0;"/><path d="M264.3194,628.7969 L264.3194,631.2969 L268.6475,631.2969 L268.6475,630.375 Q268.6475,629.7656 268.8819,629.5 Q269.1319,629.2344 269.5069,629.2344 Q269.8819,629.2344 270.1163,629.5 Q270.3506,629.7656 270.3506,630.375 L270.3506,633 L262.3506,633 Q261.7256,633 261.46,632.7656 Q261.21,632.5313 261.21,632.1406 Q261.21,631.7656 261.4756,631.5313 Q261.7413,631.2969 262.3506,631.2969 L262.6163,631.2969 L262.6163,624.6406 L262.3506,624.6406 Q261.7256,624.6406 261.46,624.4063 Q261.21,624.1719 261.21,623.7813 Q261.21,623.4063 261.46,623.1719 Q261.7256,622.9375 262.3506,622.9375 L269.9756,622.9375 L269.9756,625.5313 Q269.9756,626.1406 269.7413,626.4063 Q269.5225,626.6563 269.1319,626.6563 Q268.7569,626.6563 268.5225,626.4063 Q268.2881,626.1406 268.2881,625.5313 L268.2881,624.6406 L264.3194,624.6406 L264.3194,627.0938 L265.8038,627.0938 Q265.8038,626.4375 265.9288,626.25 Q266.1944,625.8438 266.6631,625.8438 Q267.0381,625.8438 267.2725,626.1094 Q267.5069,626.3594 267.5069,626.9688 L267.5069,628.9375 Q267.5069,629.4844 267.3819,629.6719 Q267.1163,630.0625 266.6631,630.0625 Q266.1944,630.0625 265.9288,629.6563 Q265.8038,629.4688 265.8038,628.7969 L264.3194,628.7969 Z " fill="#000000"/><text fill="#000000" font-family="sans-serif" font-size="14" lengthAdjust="spacing" textLength="46" x="285.96" y="633.7285">recipes</text><line style="stroke:#181818;stroke-width:0.5;" x1="219.71" x2="365.71" y1="644" y2="644"/><ellipse cx="229.71" cy="658.3047" fill="none" rx="3" ry="3" style="stroke:#038048;stroke-width:1.0;"/><text fill="#000000" font-family="sans-serif" font-size="14" lengthAdjust="spacing" textLength="70" x="238.71" y="662.5332">id: INT [PK]</text><line style="stroke:#181818;stroke-width:1.0;" x1="219.71" x2="365.71" y1="669.6094" y2="669.6094"/><text fill="#000000" font-family="sans-serif" font-size="14" lengthAdjust="spacing" textLength="106" x="224.71" y="688.1426">user_id: INT [FK]</text><text fill="#000000" font-family="sans-serif" font-size="14" lengthAdjust="spacing" textLength="130" x="224.71" y="705.752">title: VARCHAR(255)</text><text fill="#000000" font-family="sans-serif" font-size="14" lengthAdjust="spacing" textLength="112" x="224.71" y="723.3613">description: TEXT</text><text fill="#000000" font-family="sans-serif" font-size="14" lengthAdjust="spacing" textLength="129" x="224.71" y="740.9707">difficulty_id: INT [FK]</text><text fill="#000000" font-family="sans-serif" font-size="14" lengthAdjust="spacing" textLength="136" x="224.71" y="758.5801">preparation_time: INT</text><text fill="#000000" font-family="sans-serif" font-size="14" lengthAdjust="spacing" textLength="129" x="224.71" y="776.1895">is_public: BOOLEAN</text></g><!--class difficulties--><g id="elem_difficulties"><rect codeLine="35" fill="#F1F1F1" height="83.2188" id="difficulties" rx="2.5" ry="2.5" style="stroke:#181818;stroke-width:0.5;" width="200" x="424.71" y="852"/><ellipse cx="489.46" cy="868" fill="#ADD1B2" rx="11" ry="11" style="stroke:#181818;stroke-width:1.0;"/><path d="M488.3194,868.7969 L488.3194,871.2969 L492.6475,871.2969 L492.6475,870.375 Q492.6475,869.7656 492.8819,869.5 Q493.1319,869.2344 493.5069,869.2344 Q493.8819,869.2344 494.1163,869.5 Q494.3506,869.7656 494.3506,870.375 L494.3506,873 L486.3506,873 Q485.7256,873 485.46,872.7656 Q485.21,872.5313 485.21,872.1406 Q485.21,871.7656 485.4756,871.5313 Q485.7413,871.2969 486.3506,871.2969 L486.6163,871.2969 L486.6163,864.6406 L486.3506,864.6406 Q485.7256,864.6406 485.46,864.4063 Q485.21,864.1719 485.21,863.7813 Q485.21,863.4063 485.46,863.1719 Q485.7256,862.9375 486.3506,862.9375 L493.9756,862.9375 L493.9756,865.5313 Q493.9756,866.1406 493.7413,866.4063 Q493.5225,866.6563 493.1319,866.6563 Q492.7569,866.6563 492.5225,866.4063 Q492.2881,866.1406 492.2881,865.5313 L492.2881,864.6406 L488.3194,864.6406 L488.3194,867.0938 L489.8038,867.0938 Q489.8038,866.4375 489.9288,866.25 Q490.1944,865.8438 490.6631,865.8438 Q491.0381,865.8438 491.2725,866.1094 Q491.5069,866.3594 491.5069,866.9688 L491.5069,868.9375 Q491.5069,869.4844 491.3819,869.6719 Q491.1163,870.0625 490.6631,870.0625 Q490.1944,870.0625 489.9288,869.6563 Q489.8038,869.4688 489.8038,868.7969 L488.3194,868.7969 Z " fill="#000000"/><text fill="#000000" font-family="sans-serif" font-size="14" lengthAdjust="spacing" textLength="62" x="509.96" y="873.7285">difficulties</text><line style="stroke:#181818;stroke-width:0.5;" x1="425.71" x2="623.71" y1="884" y2="884"/><ellipse cx="435.71" cy="898.3047" fill="none" rx="3" ry="3" style="stroke:#038048;stroke-width:1.0;"/><text fill="#000000" font-family="sans-serif" font-size="14" lengthAdjust="spacing" textLength="70" x="444.71" y="902.5332">id: INT [PK]</text><line style="stroke:#181818;stroke-width:1.0;" x1="425.71" x2="623.71" y1="909.6094" y2="909.6094"/><text fill="#000000" font-family="sans-serif" font-size="14" lengthAdjust="spacing" textLength="188" x="430.71" y="928.1426">difficulty_level: VARCHAR(50)</text></g><!--class ingredients--><g id="elem_ingredients"><rect codeLine="41" fill="#F1F1F1" height="100.8281" id="ingredients" rx="2.5" ry="2.5" style="stroke:#181818;stroke-width:0.5;" width="155" x="963.21" y="1004"/><ellipse cx="1002.06" cy="1020" fill="#ADD1B2" rx="11" ry="11" style="stroke:#181818;stroke-width:1.0;"/><path d="M1000.9194,1020.7969 L1000.9194,1023.2969 L1005.2475,1023.2969 L1005.2475,1022.375 Q1005.2475,1021.7656 1005.4819,1021.5 Q1005.7319,1021.2344 1006.1069,1021.2344 Q1006.4819,1021.2344 1006.7163,1021.5 Q1006.9506,1021.7656 1006.9506,1022.375 L1006.9506,1025 L998.9506,1025 Q998.3256,1025 998.06,1024.7656 Q997.81,1024.5313 997.81,1024.1406 Q997.81,1023.7656 998.0756,1023.5313 Q998.3413,1023.2969 998.9506,1023.2969 L999.2163,1023.2969 L999.2163,1016.6406 L998.9506,1016.6406 Q998.3256,1016.6406 998.06,1016.4063 Q997.81,1016.1719 997.81,1015.7813 Q997.81,1015.4063 998.06,1015.1719 Q998.3256,1014.9375 998.9506,1014.9375 L1006.5756,1014.9375 L1006.5756,1017.5313 Q1006.5756,1018.1406 1006.3413,1018.4063 Q1006.1225,1018.6563 1005.7319,1018.6563 Q1005.3569,1018.6563 1005.1225,1018.4063 Q1004.8881,1018.1406 1004.8881,1017.5313 L1004.8881,1016.6406 L1000.9194,1016.6406 L1000.9194,1019.0938 L1002.4038,1019.0938 Q1002.4038,1018.4375 1002.5288,1018.25 Q1002.7944,1017.8438 1003.2631,1017.8438 Q1003.6381,1017.8438 1003.8725,1018.1094 Q1004.1069,1018.3594 1004.1069,1018.9688 L1004.1069,1020.9375 Q1004.1069,1021.4844 1003.9819,1021.6719 Q1003.7163,1022.0625 1003.2631,1022.0625 Q1002.7944,1022.0625 1002.5288,1021.6563 Q1002.4038,1021.4688 1002.4038,1020.7969 L1000.9194,1020.7969 Z " fill="#000000"/><text fill="#000000" font-family="sans-serif" font-size="14" lengthAdjust="spacing" textLength="70" x="1021.36" y="1025.7285">ingredients</text><line style="stroke:#181818;stroke-width:0.5;" x1="964.21" x2="1117.21" y1="1036" y2="1036"/><ellipse cx="974.21" cy="1050.3047" fill="none" rx="3" ry="3" style="stroke:#038048;stroke-width:1.0;"/><text fill="#000000" font-family="sans-serif" font-size="14" lengthAdjust="spacing" textLength="70" x="983.21" y="1054.5332">id: INT [PK]</text><line style="stroke:#181818;stroke-width:1.0;" x1="964.21" x2="1117.21" y1="1061.6094" y2="1061.6094"/><text fill="#000000" font-family="sans-serif" font-size="14" lengthAdjust="spacing" textLength="143" x="969.21" y="1080.1426">name: VARCHAR(100)</text><text fill="#000000" font-family="sans-serif" font-size="14" lengthAdjust="spacing" textLength="101" x="969.21" y="1097.752">unit_id: INT [FK]</text></g><!--class units--><g id="elem_units"><rect codeLine="48" fill="#F1F1F1" height="83.2188" id="units" rx="2.5" ry="2.5" style="stroke:#181818;stroke-width:0.5;" width="178" x="951.71" y="1165"/><ellipse cx="1021.46" cy="1181" fill="#ADD1B2" rx="11" ry="11" style="stroke:#181818;stroke-width:1.0;"/><path d="M1020.3194,1181.7969 L1020.3194,1184.2969 L1024.6475,1184.2969 L1024.6475,1183.375 Q1024.6475,1182.7656 1024.8819,1182.5 Q1025.1319,1182.2344 1025.5069,1182.2344 Q1025.8819,1182.2344 1026.1163,1182.5 Q1026.3506,1182.7656 1026.3506,1183.375 L1026.3506,1186 L1018.3506,1186 Q1017.7256,1186 1017.46,1185.7656 Q1017.21,1185.5313 1017.21,1185.1406 Q1017.21,1184.7656 1017.4756,1184.5313 Q1017.7413,1184.2969 1018.3506,1184.2969 L1018.6163,1184.2969 L1018.6163,1177.6406 L1018.3506,1177.6406 Q1017.7256,1177.6406 1017.46,1177.4063 Q1017.21,1177.1719 1017.21,1176.7813 Q1017.21,1176.4063 1017.46,1176.1719 Q1017.7256,1175.9375 1018.3506,1175.9375 L1025.9756,1175.9375 L1025.9756,1178.5313 Q1025.9756,1179.1406 1025.7413,1179.4063 Q1025.5225,1179.6563 1025.1319,1179.6563 Q1024.7569,1179.6563 1024.5225,1179.4063 Q1024.2881,1179.1406 1024.2881,1178.5313 L1024.2881,1177.6406 L1020.3194,1177.6406 L1020.3194,1180.0938 L1021.8038,1180.0938 Q1021.8038,1179.4375 1021.9288,1179.25 Q1022.1944,1178.8438 1022.6631,1178.8438 Q1023.0381,1178.8438 1023.2725,1179.1094 Q1023.5069,1179.3594 1023.5069,1179.9688 L1023.5069,1181.9375 Q1023.5069,1182.4844 1023.3819,1182.6719 Q1023.1163,1183.0625 1022.6631,1183.0625 Q1022.1944,1183.0625 1021.9288,1182.6563 Q1021.8038,1182.4688 1021.8038,1181.7969 L1020.3194,1181.7969 Z " fill="#000000"/><text fill="#000000" font-family="sans-serif" font-size="14" lengthAdjust="spacing" textLength="30" x="1041.96" y="1186.7285">units</text><line style="stroke:#181818;stroke-width:0.5;" x1="952.71" x2="1128.71" y1="1197" y2="1197"/><ellipse cx="962.71" cy="1211.3047" fill="none" rx="3" ry="3" style="stroke:#038048;stroke-width:1.0;"/><text fill="#000000" font-family="sans-serif" font-size="14" lengthAdjust="spacing" textLength="70" x="971.71" y="1215.5332">id: INT [PK]</text><line style="stroke:#181818;stroke-width:1.0;" x1="952.71" x2="1128.71" y1="1222.6094" y2="1222.6094"/><text fill="#000000" font-family="sans-serif" font-size="14" lengthAdjust="spacing" textLength="166" x="957.71" y="1241.1426">unit_name: VARCHAR(50)</text></g><!--class recipe_ingredients--><g id="elem_recipe_ingredients"><rect codeLine="54" fill="#F1F1F1" height="100.8281" id="recipe_ingredients" rx="2.5" ry="2.5" style="stroke:#181818;stroke-width:0.5;" width="193" x="196.21" y="843"/><ellipse cx="231.01" cy="859" fill="#ADD1B2" rx="11" ry="11" style="stroke:#181818;stroke-width:1.0;"/><path d="M229.8694,859.7969 L229.8694,862.2969 L234.1975,862.2969 L234.1975,861.375 Q234.1975,860.7656 234.4319,860.5 Q234.6819,860.2344 235.0569,860.2344 Q235.4319,860.2344 235.6663,860.5 Q235.9006,860.7656 235.9006,861.375 L235.9006,864 L227.9006,864 Q227.2756,864 227.01,863.7656 Q226.76,863.5313 226.76,863.1406 Q226.76,862.7656 227.0256,862.5313 Q227.2913,862.2969 227.9006,862.2969 L228.1663,862.2969 L228.1663,855.6406 L227.9006,855.6406 Q227.2756,855.6406 227.01,855.4063 Q226.76,855.1719 226.76,854.7813 Q226.76,854.4063 227.01,854.1719 Q227.2756,853.9375 227.9006,853.9375 L235.5256,853.9375 L235.5256,856.5313 Q235.5256,857.1406 235.2913,857.4063 Q235.0725,857.6563 234.6819,857.6563 Q234.3069,857.6563 234.0725,857.4063 Q233.8381,857.1406 233.8381,856.5313 L233.8381,855.6406 L229.8694,855.6406 L229.8694,858.0938 L231.3538,858.0938 Q231.3538,857.4375 231.4788,857.25 Q231.7444,856.8438 232.2131,856.8438 Q232.5881,856.8438 232.8225,857.1094 Q233.0569,857.3594 233.0569,857.9688 L233.0569,859.9375 Q233.0569,860.4844 232.9319,860.6719 Q232.6663,861.0625 232.2131,861.0625 Q231.7444,861.0625 231.4788,860.6563 Q231.3538,860.4688 231.3538,859.7969 L229.8694,859.7969 Z " fill="#000000"/><text fill="#000000" font-family="sans-serif" font-size="14" lengthAdjust="spacing" textLength="117" x="249.41" y="864.7285">recipe_ingredients</text><line style="stroke:#181818;stroke-width:0.5;" x1="197.21" x2="388.21" y1="875" y2="875"/><ellipse cx="207.21" cy="889.3047" fill="none" rx="3" ry="3" style="stroke:#038048;stroke-width:1.0;"/><text fill="#000000" font-family="sans-serif" font-size="14" lengthAdjust="spacing" textLength="143" x="216.21" y="893.5332">recipe_id: INT [PK, FK]</text><ellipse cx="207.21" cy="906.9141" fill="none" rx="3" ry="3" style="stroke:#038048;stroke-width:1.0;"/><text fill="#000000" font-family="sans-serif" font-size="14" lengthAdjust="spacing" textLength="167" x="216.21" y="911.1426">ingredient_id: INT [PK, FK]</text><line style="stroke:#181818;stroke-width:1.0;" x1="197.21" x2="388.21" y1="918.2188" y2="918.2188"/><text fill="#000000" font-family="sans-serif" font-size="14" lengthAdjust="spacing" textLength="156" x="202.21" y="936.752">quantity: DECIMAL(10,2)</text></g><!--class menus--><g id="elem_menus"><rect codeLine="61" fill="#F1F1F1" height="136.0469" id="menus" rx="2.5" ry="2.5" style="stroke:#181818;stroke-width:0.5;" width="142" x="576.71" y="185"/><ellipse cx="622.46" cy="201" fill="#ADD1B2" rx="11" ry="11" style="stroke:#181818;stroke-width:1.0;"/><path d="M621.3194,201.7969 L621.3194,204.2969 L625.6475,204.2969 L625.6475,203.375 Q625.6475,202.7656 625.8819,202.5 Q626.1319,202.2344 626.5069,202.2344 Q626.8819,202.2344 627.1163,202.5 Q627.3506,202.7656 627.3506,203.375 L627.3506,206 L619.3506,206 Q618.7256,206 618.46,205.7656 Q618.21,205.5313 618.21,205.1406 Q618.21,204.7656 618.4756,204.5313 Q618.7413,204.2969 619.3506,204.2969 L619.6163,204.2969 L619.6163,197.6406 L619.3506,197.6406 Q618.7256,197.6406 618.46,197.4063 Q618.21,197.1719 618.21,196.7813 Q618.21,196.4063 618.46,196.1719 Q618.7256,195.9375 619.3506,195.9375 L626.9756,195.9375 L626.9756,198.5313 Q626.9756,199.1406 626.7413,199.4063 Q626.5225,199.6563 626.1319,199.6563 Q625.7569,199.6563 625.5225,199.4063 Q625.2881,199.1406 625.2881,198.5313 L625.2881,197.6406 L621.3194,197.6406 L621.3194,200.0938 L622.8038,200.0938 Q622.8038,199.4375 622.9288,199.25 Q623.1944,198.8438 623.6631,198.8438 Q624.0381,198.8438 624.2725,199.1094 Q624.5069,199.3594 624.5069,199.9688 L624.5069,201.9375 Q624.5069,202.4844 624.3819,202.6719 Q624.1163,203.0625 623.6631,203.0625 Q623.1944,203.0625 622.9288,202.6563 Q622.8038,202.4688 622.8038,201.7969 L621.3194,201.7969 Z " fill="#000000"/><text fill="#000000" font-family="sans-serif" font-size="14" lengthAdjust="spacing" textLength="42" x="642.96" y="206.7285">menus</text><line style="stroke:#181818;stroke-width:0.5;" x1="577.71" x2="717.71" y1="217" y2="217"/><ellipse cx="587.71" cy="231.3047" fill="none" rx="3" ry="3" style="stroke:#038048;stroke-width:1.0;"/><text fill="#000000" font-family="sans-serif" font-size="14" lengthAdjust="spacing" textLength="70" x="596.71" y="235.5332">id: INT [PK]</text><line style="stroke:#181818;stroke-width:1.0;" x1="577.71" x2="717.71" y1="242.6094" y2="242.6094"/><text fill="#000000" font-family="sans-serif" font-size="14" lengthAdjust="spacing" textLength="106" x="582.71" y="261.1426">user_id: INT [FK]</text><text fill="#000000" font-family="sans-serif" font-size="14" lengthAdjust="spacing" textLength="130" x="582.71" y="278.752">title: VARCHAR(255)</text><text fill="#000000" font-family="sans-serif" font-size="14" lengthAdjust="spacing" textLength="109" x="582.71" y="296.3613">start_date: DATE</text><text fill="#000000" font-family="sans-serif" font-size="14" lengthAdjust="spacing" textLength="105" x="582.71" y="313.9707">end_date: DATE</text></g><!--class meal_types--><g id="elem_meal_types"><rect codeLine="70" fill="#F1F1F1" height="83.2188" id="meal_types" rx="2.5" ry="2.5" style="stroke:#181818;stroke-width:0.5;" width="177" x="364.21" y="211.5"/><ellipse cx="412.46" cy="227.5" fill="#ADD1B2" rx="11" ry="11" style="stroke:#181818;stroke-width:1.0;"/><path d="M411.3194,228.2969 L411.3194,230.7969 L415.6475,230.7969 L415.6475,229.875 Q415.6475,229.2656 415.8819,229 Q416.1319,228.7344 416.5069,228.7344 Q416.8819,228.7344 417.1163,229 Q417.3506,229.2656 417.3506,229.875 L417.3506,232.5 L409.3506,232.5 Q408.7256,232.5 408.46,232.2656 Q408.21,232.0313 408.21,231.6406 Q408.21,231.2656 408.4756,231.0313 Q408.7413,230.7969 409.3506,230.7969 L409.6163,230.7969 L409.6163,224.1406 L409.3506,224.1406 Q408.7256,224.1406 408.46,223.9063 Q408.21,223.6719 408.21,223.2813 Q408.21,222.9063 408.46,222.6719 Q408.7256,222.4375 409.3506,222.4375 L416.9756,222.4375 L416.9756,225.0313 Q416.9756,225.6406 416.7413,225.9063 Q416.5225,226.1563 416.1319,226.1563 Q415.7569,226.1563 415.5225,225.9063 Q415.2881,225.6406 415.2881,225.0313 L415.2881,224.1406 L411.3194,224.1406 L411.3194,226.5938 L412.8038,226.5938 Q412.8038,225.9375 412.9288,225.75 Q413.1944,225.3438 413.6631,225.3438 Q414.0381,225.3438 414.2725,225.6094 Q414.5069,225.8594 414.5069,226.4688 L414.5069,228.4375 Q414.5069,228.9844 414.3819,229.1719 Q414.1163,229.5625 413.6631,229.5625 Q413.1944,229.5625 412.9288,229.1563 Q412.8038,228.9688 412.8038,228.2969 L411.3194,228.2969 Z " fill="#000000"/><text fill="#000000" font-family="sans-serif" font-size="14" lengthAdjust="spacing" textLength="72" x="432.96" y="233.2285">meal_types</text><line style="stroke:#181818;stroke-width:0.5;" x1="365.21" x2="540.21" y1="243.5" y2="243.5"/><ellipse cx="375.21" cy="257.8047" fill="none" rx="3" ry="3" style="stroke:#038048;stroke-width:1.0;"/><text fill="#000000" font-family="sans-serif" font-size="14" lengthAdjust="spacing" textLength="70" x="384.21" y="262.0332">id: INT [PK]</text><line style="stroke:#181818;stroke-width:1.0;" x1="365.21" x2="540.21" y1="269.1094" y2="269.1094"/><text fill="#000000" font-family="sans-serif" font-size="14" lengthAdjust="spacing" textLength="165" x="370.21" y="287.6426">meal_type: VARCHAR(50)</text></g><!--class menu_recipes--><g id="elem_menu_recipes"><rect codeLine="76" fill="#F1F1F1" height="118.4375" id="menu_recipes" rx="2.5" ry="2.5" style="stroke:#181818;stroke-width:0.5;" width="169" x="368.21" y="7"/><ellipse cx="404.81" cy="23" fill="#ADD1B2" rx="11" ry="11" style="stroke:#181818;stroke-width:1.0;"/><path d="M403.6694,23.7969 L403.6694,26.2969 L407.9975,26.2969 L407.9975,25.375 Q407.9975,24.7656 408.2319,24.5 Q408.4819,24.2344 408.8569,24.2344 Q409.2319,24.2344 409.4663,24.5 Q409.7006,24.7656 409.7006,25.375 L409.7006,28 L401.7006,28 Q401.0756,28 400.81,27.7656 Q400.56,27.5313 400.56,27.1406 Q400.56,26.7656 400.8256,26.5313 Q401.0913,26.2969 401.7006,26.2969 L401.9663,26.2969 L401.9663,19.6406 L401.7006,19.6406 Q401.0756,19.6406 400.81,19.4063 Q400.56,19.1719 400.56,18.7813 Q400.56,18.4063 400.81,18.1719 Q401.0756,17.9375 401.7006,17.9375 L409.3256,17.9375 L409.3256,20.5313 Q409.3256,21.1406 409.0913,21.4063 Q408.8725,21.6563 408.4819,21.6563 Q408.1069,21.6563 407.8725,21.4063 Q407.6381,21.1406 407.6381,20.5313 L407.6381,19.6406 L403.6694,19.6406 L403.6694,22.0938 L405.1538,22.0938 Q405.1538,21.4375 405.2788,21.25 Q405.5444,20.8438 406.0131,20.8438 Q406.3881,20.8438 406.6225,21.1094 Q406.8569,21.3594 406.8569,21.9688 L406.8569,23.9375 Q406.8569,24.4844 406.7319,24.6719 Q406.4663,25.0625 406.0131,25.0625 Q405.5444,25.0625 405.2788,24.6563 Q405.1538,24.4688 405.1538,23.7969 L403.6694,23.7969 Z " fill="#000000"/><text fill="#000000" font-family="sans-serif" font-size="14" lengthAdjust="spacing" textLength="89" x="423.61" y="28.7285">menu_recipes</text><line style="stroke:#181818;stroke-width:0.5;" x1="369.21" x2="536.21" y1="39" y2="39"/><ellipse cx="379.21" cy="53.3047" fill="none" rx="3" ry="3" style="stroke:#038048;stroke-width:1.0;"/><text fill="#000000" font-family="sans-serif" font-size="14" lengthAdjust="spacing" textLength="139" x="388.21" y="57.5332">menu_id: INT [PK, FK]</text><ellipse cx="379.21" cy="70.9141" fill="none" rx="3" ry="3" style="stroke:#038048;stroke-width:1.0;"/><text fill="#000000" font-family="sans-serif" font-size="14" lengthAdjust="spacing" textLength="143" x="388.21" y="75.1426">recipe_id: INT [PK, FK]</text><ellipse cx="379.21" cy="88.5234" fill="none" rx="3" ry="3" style="stroke:#038048;stroke-width:1.0;"/><text fill="#000000" font-family="sans-serif" font-size="14" lengthAdjust="spacing" textLength="143" x="388.21" y="92.752">meal_type_id: INT [FK]</text><ellipse cx="379.21" cy="106.1328" fill="none" rx="3" ry="3" style="stroke:#038048;stroke-width:1.0;"/><text fill="#000000" font-family="sans-serif" font-size="14" lengthAdjust="spacing" textLength="68" x="388.21" y="110.3613">day: DATE</text><line style="stroke:#181818;stroke-width:0.5;" x1="369.21" x2="536.21" y1="117.4375" y2="117.4375"/></g><!--class shopping_lists--><g id="elem_shopping_lists"><rect codeLine="83" fill="#F1F1F1" height="100.8281" id="shopping_lists" rx="2.5" ry="2.5" style="stroke:#181818;stroke-width:0.5;" width="167" x="754.21" y="202.5"/><ellipse cx="789.46" cy="218.5" fill="#ADD1B2" rx="11" ry="11" style="stroke:#181818;stroke-width:1.0;"/><path d="M788.3194,219.2969 L788.3194,221.7969 L792.6475,221.7969 L792.6475,220.875 Q792.6475,220.2656 792.8819,220 Q793.1319,219.7344 793.5069,219.7344 Q793.8819,219.7344 794.1163,220 Q794.3506,220.2656 794.3506,220.875 L794.3506,223.5 L786.3506,223.5 Q785.7256,223.5 785.46,223.2656 Q785.21,223.0313 785.21,222.6406 Q785.21,222.2656 785.4756,222.0313 Q785.7413,221.7969 786.3506,221.7969 L786.6163,221.7969 L786.6163,215.1406 L786.3506,215.1406 Q785.7256,215.1406 785.46,214.9063 Q785.21,214.6719 785.21,214.2813 Q785.21,213.9063 785.46,213.6719 Q785.7256,213.4375 786.3506,213.4375 L793.9756,213.4375 L793.9756,216.0313 Q793.9756,216.6406 793.7413,216.9063 Q793.5225,217.1563 793.1319,217.1563 Q792.7569,217.1563 792.5225,216.9063 Q792.2881,216.6406 792.2881,216.0313 L792.2881,215.1406 L788.3194,215.1406 L788.3194,217.5938 L789.8038,217.5938 Q789.8038,216.9375 789.9288,216.75 Q790.1944,216.3438 790.6631,216.3438 Q791.0381,216.3438 791.2725,216.6094 Q791.5069,216.8594 791.5069,217.4688 L791.5069,219.4375 Q791.5069,219.9844 791.3819,220.1719 Q791.1163,220.5625 790.6631,220.5625 Q790.1944,220.5625 789.9288,220.1563 Q789.8038,219.9688 789.8038,219.2969 L788.3194,219.2969 Z " fill="#000000"/><text fill="#000000" font-family="sans-serif" font-size="14" lengthAdjust="spacing" textLength="90" x="807.96" y="224.2285">shopping_lists</text><line style="stroke:#181818;stroke-width:0.5;" x1="755.21" x2="920.21" y1="234.5" y2="234.5"/><ellipse cx="765.21" cy="248.8047" fill="none" rx="3" ry="3" style="stroke:#038048;stroke-width:1.0;"/><text fill="#000000" font-family="sans-serif" font-size="14" lengthAdjust="spacing" textLength="70" x="774.21" y="253.0332">id: INT [PK]</text><line style="stroke:#181818;stroke-width:1.0;" x1="755.21" x2="920.21" y1="260.1094" y2="260.1094"/><text fill="#000000" font-family="sans-serif" font-size="14" lengthAdjust="spacing" textLength="106" x="760.21" y="278.6426">user_id: INT [FK]</text><text fill="#000000" font-family="sans-serif" font-size="14" lengthAdjust="spacing" textLength="155" x="760.21" y="296.252">created_at: TIMESTAMP</text></g><!--class shopping_list_items--><g id="elem_shopping_list_items"><rect codeLine="90" fill="#F1F1F1" height="118.4375" id="shopping_list_items" rx="2.5" ry="2.5" style="stroke:#181818;stroke-width:0.5;" width="193" x="911.21" y="7"/><ellipse cx="942.86" cy="23" fill="#ADD1B2" rx="11" ry="11" style="stroke:#181818;stroke-width:1.0;"/><path d="M941.7194,23.7969 L941.7194,26.2969 L946.0475,26.2969 L946.0475,25.375 Q946.0475,24.7656 946.2819,24.5 Q946.5319,24.2344 946.9069,24.2344 Q947.2819,24.2344 947.5163,24.5 Q947.7506,24.7656 947.7506,25.375 L947.7506,28 L939.7506,28 Q939.1256,28 938.86,27.7656 Q938.61,27.5313 938.61,27.1406 Q938.61,26.7656 938.8756,26.5313 Q939.1413,26.2969 939.7506,26.2969 L940.0163,26.2969 L940.0163,19.6406 L939.7506,19.6406 Q939.1256,19.6406 938.86,19.4063 Q938.61,19.1719 938.61,18.7813 Q938.61,18.4063 938.86,18.1719 Q939.1256,17.9375 939.7506,17.9375 L947.3756,17.9375 L947.3756,20.5313 Q947.3756,21.1406 947.1413,21.4063 Q946.9225,21.6563 946.5319,21.6563 Q946.1569,21.6563 945.9225,21.4063 Q945.6881,21.1406 945.6881,20.5313 L945.6881,19.6406 L941.7194,19.6406 L941.7194,22.0938 L943.2038,22.0938 Q943.2038,21.4375 943.3288,21.25 Q943.5944,20.8438 944.0631,20.8438 Q944.4381,20.8438 944.6725,21.1094 Q944.9069,21.3594 944.9069,21.9688 L944.9069,23.9375 Q944.9069,24.4844 944.7819,24.6719 Q944.5163,25.0625 944.0631,25.0625 Q943.5944,25.0625 943.3288,24.6563 Q943.2038,24.4688 943.2038,23.7969 L941.7194,23.7969 Z " fill="#000000"/><text fill="#000000" font-family="sans-serif" font-size="14" lengthAdjust="spacing" textLength="124" x="960.56" y="28.7285">shopping_list_items</text><line style="stroke:#181818;stroke-width:0.5;" x1="912.21" x2="1103.21" y1="39" y2="39"/><ellipse cx="922.21" cy="53.3047" fill="none" rx="3" ry="3" style="stroke:#038048;stroke-width:1.0;"/><text fill="#000000" font-family="sans-serif" font-size="14" lengthAdjust="spacing" textLength="121" x="931.21" y="57.5332">list_id: INT [PK, FK]</text><ellipse cx="922.21" cy="70.9141" fill="none" rx="3" ry="3" style="stroke:#038048;stroke-width:1.0;"/><text fill="#000000" font-family="sans-serif" font-size="14" lengthAdjust="spacing" textLength="167" x="931.21" y="75.1426">ingredient_id: INT [PK, FK]</text><line style="stroke:#181818;stroke-width:1.0;" x1="912.21" x2="1103.21" y1="82.2188" y2="82.2188"/><text fill="#000000" font-family="sans-serif" font-size="14" lengthAdjust="spacing" textLength="156" x="917.21" y="100.752">quantity: DECIMAL(10,2)</text><text fill="#000000" font-family="sans-serif" font-size="14" lengthAdjust="spacing" textLength="159" x="917.21" y="118.3613">is_purchased: BOOLEAN</text></g><!--class pantries--><g id="elem_pantries"><rect codeLine="98" fill="#F1F1F1" height="136.0469" id="pantries" rx="2.5" ry="2.5" style="stroke:#181818;stroke-width:0.5;" width="168" x="956.71" y="185"/><ellipse cx="1010.96" cy="201" fill="#ADD1B2" rx="11" ry="11" style="stroke:#181818;stroke-width:1.0;"/><path d="M1009.8194,201.7969 L1009.8194,204.2969 L1014.1475,204.2969 L1014.1475,203.375 Q1014.1475,202.7656 1014.3819,202.5 Q1014.6319,202.2344 1015.0069,202.2344 Q1015.3819,202.2344 1015.6163,202.5 Q1015.8506,202.7656 1015.8506,203.375 L1015.8506,206 L1007.8506,206 Q1007.2256,206 1006.96,205.7656 Q1006.71,205.5313 1006.71,205.1406 Q1006.71,204.7656 1006.9756,204.5313 Q1007.2413,204.2969 1007.8506,204.2969 L1008.1163,204.2969 L1008.1163,197.6406 L1007.8506,197.6406 Q1007.2256,197.6406 1006.96,197.4063 Q1006.71,197.1719 1006.71,196.7813 Q1006.71,196.4063 1006.96,196.1719 Q1007.2256,195.9375 1007.8506,195.9375 L1015.4756,195.9375 L1015.4756,198.5313 Q1015.4756,199.1406 1015.2413,199.4063 Q1015.0225,199.6563 1014.6319,199.6563 Q1014.2569,199.6563 1014.0225,199.4063 Q1013.7881,199.1406 1013.7881,198.5313 L1013.7881,197.6406 L1009.8194,197.6406 L1009.8194,200.0938 L1011.3038,200.0938 Q1011.3038,199.4375 1011.4288,199.25 Q1011.6944,198.8438 1012.1631,198.8438 Q1012.5381,198.8438 1012.7725,199.1094 Q1013.0069,199.3594 1013.0069,199.9688 L1013.0069,201.9375 Q1013.0069,202.4844 1012.8819,202.6719 Q1012.6163,203.0625 1012.1631,203.0625 Q1011.6944,203.0625 1011.4288,202.6563 Q1011.3038,202.4688 1011.3038,201.7969 L1009.8194,201.7969 Z " fill="#000000"/><text fill="#000000" font-family="sans-serif" font-size="14" lengthAdjust="spacing" textLength="51" x="1031.46" y="206.7285">pantries</text><line style="stroke:#181818;stroke-width:0.5;" x1="957.71" x2="1123.71" y1="217" y2="217"/><ellipse cx="967.71" cy="231.3047" fill="none" rx="3" ry="3" style="stroke:#038048;stroke-width:1.0;"/><text fill="#000000" font-family="sans-serif" font-size="14" lengthAdjust="spacing" textLength="70" x="976.71" y="235.5332">id: INT [PK]</text><line style="stroke:#181818;stroke-width:1.0;" x1="957.71" x2="1123.71" y1="242.6094" y2="242.6094"/><text fill="#000000" font-family="sans-serif" font-size="14" lengthAdjust="spacing" textLength="106" x="962.71" y="261.1426">user_id: INT [FK]</text><text fill="#000000" font-family="sans-serif" font-size="14" lengthAdjust="spacing" textLength="141" x="962.71" y="278.752">ingredient_id: INT [FK]</text><text fill="#000000" font-family="sans-serif" font-size="14" lengthAdjust="spacing" textLength="156" x="962.71" y="296.3613">quantity: DECIMAL(10,2)</text><text fill="#000000" font-family="sans-serif" font-size="14" lengthAdjust="spacing" textLength="142" x="962.71" y="313.9707">expiration_date: DATE</text></g><!--class recipe_suggestions--><g id="elem_recipe_suggestions"><rect codeLine="107" fill="#F1F1F1" height="118.4375" id="recipe_suggestions" rx="2.5" ry="2.5" style="stroke:#181818;stroke-width:0.5;" width="209" x="120.21" y="194"/><ellipse cx="159.51" cy="210" fill="#ADD1B2" rx="11" ry="11" style="stroke:#181818;stroke-width:1.0;"/><path d="M158.3694,210.7969 L158.3694,213.2969 L162.6975,213.2969 L162.6975,212.375 Q162.6975,211.7656 162.9319,211.5 Q163.1819,211.2344 163.5569,211.2344 Q163.9319,211.2344 164.1663,211.5 Q164.4006,211.7656 164.4006,212.375 L164.4006,215 L156.4006,215 Q155.7756,215 155.51,214.7656 Q155.26,214.5313 155.26,214.1406 Q155.26,213.7656 155.5256,213.5313 Q155.7913,213.2969 156.4006,213.2969 L156.6663,213.2969 L156.6663,206.6406 L156.4006,206.6406 Q155.7756,206.6406 155.51,206.4063 Q155.26,206.1719 155.26,205.7813 Q155.26,205.4063 155.51,205.1719 Q155.7756,204.9375 156.4006,204.9375 L164.0256,204.9375 L164.0256,207.5313 Q164.0256,208.1406 163.7913,208.4063 Q163.5725,208.6563 163.1819,208.6563 Q162.8069,208.6563 162.5725,208.4063 Q162.3381,208.1406 162.3381,207.5313 L162.3381,206.6406 L158.3694,206.6406 L158.3694,209.0938 L159.8538,209.0938 Q159.8538,208.4375 159.9788,208.25 Q160.2444,207.8438 160.7131,207.8438 Q161.0881,207.8438 161.3225,208.1094 Q161.5569,208.3594 161.5569,208.9688 L161.5569,210.9375 Q161.5569,211.4844 161.4319,211.6719 Q161.1663,212.0625 160.7131,212.0625 Q160.2444,212.0625 159.9788,211.6563 Q159.8538,211.4688 159.8538,210.7969 L158.3694,210.7969 Z " fill="#000000"/><text fill="#000000" font-family="sans-serif" font-size="14" lengthAdjust="spacing" textLength="123" x="178.91" y="215.7285">recipe_suggestions</text><line style="stroke:#181818;stroke-width:0.5;" x1="121.21" x2="328.21" y1="226" y2="226"/><ellipse cx="131.21" cy="240.3047" fill="none" rx="3" ry="3" style="stroke:#038048;stroke-width:1.0;"/><text fill="#000000" font-family="sans-serif" font-size="14" lengthAdjust="spacing" textLength="132" x="140.21" y="244.5332">user_id: INT [PK, FK]</text><ellipse cx="131.21" cy="257.9141" fill="none" rx="3" ry="3" style="stroke:#038048;stroke-width:1.0;"/><text fill="#000000" font-family="sans-serif" font-size="14" lengthAdjust="spacing" textLength="143" x="140.21" y="262.1426">recipe_id: INT [PK, FK]</text><line style="stroke:#181818;stroke-width:1.0;" x1="121.21" x2="328.21" y1="269.2188" y2="269.2188"/><text fill="#000000" font-family="sans-serif" font-size="14" lengthAdjust="spacing" textLength="197" x="126.21" y="287.752">missing_ingredients_count: INT</text><text fill="#000000" font-family="sans-serif" font-size="14" lengthAdjust="spacing" textLength="139" x="126.21" y="305.3613">is_favorite: BOOLEAN</text></g><!--link users to roles--><g id="link_users_roles"><path codeLine="117" d="M688.258,559.4398 C703.878,594.8598 710.8169,610.5904 723.4869,639.3204 " fill="none" id="users-roles" style="stroke:#181818;stroke-width:1.0;"/><line style="stroke:#181818;stroke-width:1.0;" x1="682.9841" x2="690.3039" y1="557.3939" y2="554.1659"/><line style="stroke:#181818;stroke-width:1.0;" x1="684.1946" x2="691.5144" y1="560.1389" y2="556.9109"/><line style="stroke:#181818;stroke-width:1.0;" x1="688.258" x2="685.03" y1="559.4398" y2="552.12"/><line style="stroke:#181818;stroke-width:1.0;" x1="727.5219" x2="736.2399" y1="648.4702" y2="653.369"/><line style="stroke:#181818;stroke-width:1.0;" x1="727.5219" x2="725.2601" y1="648.4702" y2="658.211"/><line style="stroke:#181818;stroke-width:1.0;" x1="727.5219" x2="730.75" y1="648.4702" y2="655.79"/><ellipse cx="725.1009" cy="642.9803" fill="none" rx="4" ry="4" style="stroke:#181818;stroke-width:1.0;"/></g><!--link users to family_groups--><g id="link_users_family_groups"><path codeLine="118" d="M607.152,559.4398 C591.532,594.8598 584.5931,610.5904 571.9231,639.3204 " fill="none" id="users-family_groups" style="stroke:#181818;stroke-width:1.0;"/><line style="stroke:#181818;stroke-width:1.0;" x1="605.1061" x2="612.4259" y1="554.1659" y2="557.3939"/><line style="stroke:#181818;stroke-width:1.0;" x1="603.8956" x2="611.2154" y1="556.9109" y2="560.1389"/><line style="stroke:#181818;stroke-width:1.0;" x1="607.152" x2="610.38" y1="559.4398" y2="552.12"/><line style="stroke:#181818;stroke-width:1.0;" x1="567.8881" x2="570.1499" y1="648.4702" y2="658.211"/><line style="stroke:#181818;stroke-width:1.0;" x1="567.8881" x2="559.1701" y1="648.4702" y2="653.369"/><line style="stroke:#181818;stroke-width:1.0;" x1="567.8881" x2="564.66" y1="648.4702" y2="655.79"/><ellipse cx="570.3091" cy="642.9803" fill="none" rx="4" ry="4" style="stroke:#181818;stroke-width:1.0;"/></g><!--link users to recipes--><g id="link_users_recipes"><path codeLine="119" d="M531.0874,542.7266 C475.4974,578.5866 431.3561,607.0629 381.8561,638.9929 " fill="none" id="users-recipes" style="stroke:#181818;stroke-width:1.0;"/><line style="stroke:#181818;stroke-width:1.0;" x1="532.2804" x2="536.617" y1="537.197" y2="543.9196"/><line style="stroke:#181818;stroke-width:1.0;" x1="529.7594" x2="534.096" y1="538.8232" y2="545.5459"/><line style="stroke:#181818;stroke-width:1.0;" x1="531.0874" x2="537.81" y1="542.7266" y2="538.39"/><line style="stroke:#181818;stroke-width:1.0;" x1="373.4527" x2="369.9824" y1="644.4135" y2="653.792"/><line style="stroke:#181818;stroke-width:1.0;" x1="373.4527" x2="363.4776" y1="644.4135" y2="643.708"/><line style="stroke:#181818;stroke-width:1.0;" x1="373.4527" x2="366.73" y1="644.4135" y2="648.75"/><ellipse cx="378.4947" cy="641.1611" fill="none" rx="4" ry="4" style="stroke:#181818;stroke-width:1.0;"/></g><!--link recipes to difficulties--><g id="link_recipes_difficulties"><path codeLine="120" d="M372.8868,765.5523 C408.6868,795.4923 430.7113,813.9035 462.3913,840.3935 " fill="none" id="recipes-difficulties" style="stroke:#181818;stroke-width:1.0;"/><line style="stroke:#181818;stroke-width:1.0;" x1="367.2523" x2="372.3845" y1="766.0545" y2="759.9177"/><line style="stroke:#181818;stroke-width:1.0;" x1="369.5535" x2="374.6858" y1="767.9791" y2="761.8423"/><line style="stroke:#181818;stroke-width:1.0;" x1="372.8868" x2="366.75" y1="765.5523" y2="760.42"/><line style="stroke:#181818;stroke-width:1.0;" x1="470.0628" x2="480.0488" y1="846.8082" y2="847.3371"/><line style="stroke:#181818;stroke-width:1.0;" x1="470.0628" x2="472.3512" y1="846.8082" y2="856.5429"/><line style="stroke:#181818;stroke-width:1.0;" x1="470.0628" x2="476.2" y1="846.8082" y2="851.94"/><ellipse cx="465.4599" cy="842.9594" fill="none" rx="4" ry="4" style="stroke:#181818;stroke-width:1.0;"/></g><!--link recipes to recipe_ingredients--><g id="link_recipes_recipe_ingredients"><path codeLine="121" d="M292.71,791.03 C292.71,811.45 292.71,806.62 292.71,824.84 " fill="none" id="recipes-recipe_ingredients" style="stroke:#181818;stroke-width:1.0;"/><line style="stroke:#181818;stroke-width:1.0;" x1="288.71" x2="296.71" y1="787.03" y2="787.03"/><line style="stroke:#181818;stroke-width:1.0;" x1="288.71" x2="296.71" y1="790.03" y2="790.03"/><line style="stroke:#181818;stroke-width:1.0;" x1="292.71" x2="292.71" y1="791.03" y2="783.03"/><line style="stroke:#181818;stroke-width:1.0;" x1="292.71" x2="298.71" y1="834.84" y2="842.84"/><line style="stroke:#181818;stroke-width:1.0;" x1="292.71" x2="286.71" y1="834.84" y2="842.84"/><line style="stroke:#181818;stroke-width:1.0;" x1="292.71" x2="292.71" y1="834.84" y2="842.84"/><ellipse cx="292.71" cy="828.84" fill="none" rx="4" ry="4" style="stroke:#181818;stroke-width:1.0;"/></g><!--link recipe_ingredients to ingredients--><g id="link_recipe_ingredients_ingredients"><path codeLine="122" d="M396.9003,940.6728 C403.0503,942.8528 401.66,942.2 407.71,944 C603.08,1002.06 824.1929,1031.1083 944.9829,1044.0783 " fill="none" id="recipe_ingredients-ingredients" style="stroke:#181818;stroke-width:1.0;"/><line style="stroke:#181818;stroke-width:1.0;" x1="391.7937" x2="394.4666" y1="943.1066" y2="935.5663"/><line style="stroke:#181818;stroke-width:1.0;" x1="394.6213" x2="397.2942" y1="944.1089" y2="936.5686"/><line style="stroke:#181818;stroke-width:1.0;" x1="396.9003" x2="389.36" y1="940.6728" y2="938"/><line style="stroke:#181818;stroke-width:1.0;" x1="954.9257" x2="963.5206" y1="1045.1459" y2="1040.0343"/><line style="stroke:#181818;stroke-width:1.0;" x1="954.9257" x2="962.2394" y1="1045.1459" y2="1051.9657"/><line style="stroke:#181818;stroke-width:1.0;" x1="954.9257" x2="962.88" y1="1045.1459" y2="1046"/><ellipse cx="948.96" cy="1044.5053" fill="none" rx="4" ry="4" style="stroke:#181818;stroke-width:1.0;"/></g><!--link ingredients to units--><g id="link_ingredients_units"><path codeLine="123" d="M1040.71,1113.03 C1040.71,1132.32 1040.71,1128.15 1040.71,1146.53 " fill="none" id="ingredients-units" style="stroke:#181818;stroke-width:1.0;"/><line style="stroke:#181818;stroke-width:1.0;" x1="1036.71" x2="1044.71" y1="1109.03" y2="1109.03"/><line style="stroke:#181818;stroke-width:1.0;" x1="1036.71" x2="1044.71" y1="1112.03" y2="1112.03"/><line style="stroke:#181818;stroke-width:1.0;" x1="1040.71" x2="1040.71" y1="1113.03" y2="1105.03"/><line style="stroke:#181818;stroke-width:1.0;" x1="1040.71" x2="1046.71" y1="1156.53" y2="1164.53"/><line style="stroke:#181818;stroke-width:1.0;" x1="1040.71" x2="1034.71" y1="1156.53" y2="1164.53"/><line style="stroke:#181818;stroke-width:1.0;" x1="1040.71" x2="1040.71" y1="1156.53" y2="1164.53"/><ellipse cx="1040.71" cy="1150.53" fill="none" rx="4" ry="4" style="stroke:#181818;stroke-width:1.0;"/></g><!--link menus to users--><g id="link_menus_users"><path codeLine="124" d="M647.71,329.21 C647.71,348.2 647.71,343.11 647.71,362.98 " fill="none" id="menus-users" style="stroke:#181818;stroke-width:1.0;"/><line style="stroke:#181818;stroke-width:1.0;" x1="643.71" x2="651.71" y1="325.21" y2="325.21"/><line style="stroke:#181818;stroke-width:1.0;" x1="643.71" x2="651.71" y1="328.21" y2="328.21"/><line style="stroke:#181818;stroke-width:1.0;" x1="647.71" x2="647.71" y1="329.21" y2="321.21"/><line style="stroke:#181818;stroke-width:1.0;" x1="647.71" x2="653.71" y1="372.98" y2="380.98"/><line style="stroke:#181818;stroke-width:1.0;" x1="647.71" x2="641.71" y1="372.98" y2="380.98"/><line style="stroke:#181818;stroke-width:1.0;" x1="647.71" x2="647.71" y1="372.98" y2="380.98"/><ellipse cx="647.71" cy="366.98" fill="none" rx="4" ry="4" style="stroke:#181818;stroke-width:1.0;"/></g><!--link menu_recipes to menus--><g id="link_menu_recipes_menus"><path codeLine="125" d="M519.673,130.5369 C539.663,149.5069 543.1843,152.8285 563.8243,172.4185 " fill="none" id="menu_recipes-menus" style="stroke:#181818;stroke-width:1.0;"/><line style="stroke:#181818;stroke-width:1.0;" x1="514.018" x2="519.5249" y1="130.6849" y2="124.882"/><line style="stroke:#181818;stroke-width:1.0;" x1="516.1942" x2="521.701" y1="132.75" y2="126.947"/><line style="stroke:#181818;stroke-width:1.0;" x1="519.673" x2="513.87" y1="130.5369" y2="125.03"/><line style="stroke:#181818;stroke-width:1.0;" x1="571.0775" x2="581.0105" y1="179.3027" y2="180.4581"/><line style="stroke:#181818;stroke-width:1.0;" x1="571.0775" x2="572.7495" y1="179.3027" y2="189.1619"/><line style="stroke:#181818;stroke-width:1.0;" x1="571.0775" x2="576.88" y1="179.3027" y2="184.81"/><ellipse cx="566.7256" cy="175.1722" fill="none" rx="4" ry="4" style="stroke:#181818;stroke-width:1.0;"/></g><!--link menu_recipes to recipes--><g id="link_menu_recipes_recipes"><path codeLine="126" d="M360.0195,69.7963 C277.0995,76.9363 162.74,101.4 102.71,185 C6,319.65 118.8075,495.3764 207.1475,601.8664 " fill="none" id="menu_recipes-recipes" style="stroke:#181818;stroke-width:1.0;"/><line style="stroke:#181818;stroke-width:1.0;" x1="363.6616" x2="364.3479" y1="65.4679" y2="73.4384"/><line style="stroke:#181818;stroke-width:1.0;" x1="360.6726" x2="361.359" y1="65.7253" y2="73.6958"/><line style="stroke:#181818;stroke-width:1.0;" x1="360.0195" x2="367.99" y1="69.7963" y2="69.11"/><line style="stroke:#181818;stroke-width:1.0;" x1="213.5322" x2="223.2579" y1="609.5628" y2="611.8892"/><line style="stroke:#181818;stroke-width:1.0;" x1="213.5322" x2="214.0221" y1="609.5628" y2="619.5508"/><line style="stroke:#181818;stroke-width:1.0;" x1="213.5322" x2="218.64" y1="609.5628" y2="615.72"/><ellipse cx="209.7014" cy="604.9449" fill="none" rx="4" ry="4" style="stroke:#181818;stroke-width:1.0;"/></g><!--link menu_recipes to meal_types--><g id="link_menu_recipes_meal_types"><path codeLine="127" d="M452.71,133.03 C452.71,161.11 452.71,168.14 452.71,193.47 " fill="none" id="menu_recipes-meal_types" style="stroke:#181818;stroke-width:1.0;"/><line style="stroke:#181818;stroke-width:1.0;" x1="448.71" x2="456.71" y1="129.03" y2="129.03"/><line style="stroke:#181818;stroke-width:1.0;" x1="448.71" x2="456.71" y1="132.03" y2="132.03"/><line style="stroke:#181818;stroke-width:1.0;" x1="452.71" x2="452.71" y1="133.03" y2="125.03"/><line style="stroke:#181818;stroke-width:1.0;" x1="452.71" x2="458.71" y1="203.47" y2="211.47"/><line style="stroke:#181818;stroke-width:1.0;" x1="452.71" x2="446.71" y1="203.47" y2="211.47"/><line style="stroke:#181818;stroke-width:1.0;" x1="452.71" x2="452.71" y1="203.47" y2="211.47"/><ellipse cx="452.71" cy="197.47" fill="none" rx="4" ry="4" style="stroke:#181818;stroke-width:1.0;"/></g><!--link shopping_lists to users--><g id="link_shopping_lists_users"><path codeLine="128" d="M787.8133,309.5409 C767.1933,332.4909 759.4786,341.0793 735.9886,367.2293 " fill="none" id="shopping_lists-users" style="stroke:#181818;stroke-width:1.0;"/><line style="stroke:#181818;stroke-width:1.0;" x1="787.5112" x2="793.4621" y1="303.8921" y2="309.2388"/><line style="stroke:#181818;stroke-width:1.0;" x1="785.5062" x2="791.4571" y1="306.1237" y2="311.4704"/><line style="stroke:#181818;stroke-width:1.0;" x1="787.8133" x2="793.16" y1="309.5409" y2="303.59"/><line style="stroke:#181818;stroke-width:1.0;" x1="729.3061" x2="728.4236" y1="374.6686" y2="384.6295"/><line style="stroke:#181818;stroke-width:1.0;" x1="729.3061" x2="719.4964" y1="374.6686" y2="376.6105"/><line style="stroke:#181818;stroke-width:1.0;" x1="729.3061" x2="723.96" y1="374.6686" y2="380.62"/><ellipse cx="733.3156" cy="370.205" fill="none" rx="4" ry="4" style="stroke:#181818;stroke-width:1.0;"/></g><!--link shopping_list_items to shopping_lists--><g id="link_shopping_list_items_shopping_lists"><path codeLine="129" d="M948.967,130.9206 C926.187,155.7106 917.4522,165.2288 895.5722,189.0288 " fill="none" id="shopping_list_items-shopping_lists" style="stroke:#181818;stroke-width:1.0;"/><line style="stroke:#181818;stroke-width:1.0;" x1="948.7282" x2="954.6188" y1="125.2688" y2="130.6818"/><line style="stroke:#181818;stroke-width:1.0;" x1="946.6983" x2="952.5889" y1="127.4778" y2="132.8908"/><line style="stroke:#181818;stroke-width:1.0;" x1="948.967" x2="954.38" y1="130.9206" y2="125.03"/><line style="stroke:#181818;stroke-width:1.0;" x1="888.8043" x2="887.8071" y1="196.3906" y2="206.3407"/><line style="stroke:#181818;stroke-width:1.0;" x1="888.8043" x2="878.9729" y1="196.3906" y2="198.2193"/><line style="stroke:#181818;stroke-width:1.0;" x1="888.8043" x2="883.39" y1="196.3906" y2="202.28"/><ellipse cx="892.865" cy="191.9735" fill="none" rx="4" ry="4" style="stroke:#181818;stroke-width:1.0;"/></g><!--link shopping_list_items to ingredients--><g id="link_shopping_list_items_ingredients"><path codeLine="130" d="M1099.4034,130.5115 C1118.5534,147.5715 1130.73,162.46 1142.71,185 C1201.65,295.95 1177.71,339.87 1177.71,465.5 C1177.71,465.5 1177.71,465.5 1177.71,698.5 C1177.71,813.94 1123.2248,921.8218 1082.7048,988.4318 " fill="none" id="shopping_list_items-ingredients" style="stroke:#181818;stroke-width:1.0;"/><line style="stroke:#181818;stroke-width:1.0;" x1="1093.756" x2="1099.0775" y1="130.8375" y2="124.864"/><line style="stroke:#181818;stroke-width:1.0;" x1="1095.996" x2="1101.3175" y1="132.833" y2="126.8596"/><line style="stroke:#181818;stroke-width:1.0;" x1="1099.4034" x2="1093.43" y1="130.5115" y2="125.19"/><line style="stroke:#181818;stroke-width:1.0;" x1="1077.5077" x2="1078.4761" y1="996.9753" y2="1006.9283"/><line style="stroke:#181818;stroke-width:1.0;" x1="1077.5077" x2="1068.2239" y1="996.9753" y2="1000.6917"/><line style="stroke:#181818;stroke-width:1.0;" x1="1077.5077" x2="1073.35" y1="996.9753" y2="1003.81"/><ellipse cx="1080.626" cy="991.8492" fill="none" rx="4" ry="4" style="stroke:#181818;stroke-width:1.0;"/></g><!--link pantries to users--><g id="link_pantries_users"><path codeLine="131" d="M949.7705,314.5526 C943.7705,318.2326 944.59,317.63 938.71,321 C880.12,354.62 828.9038,380.6342 773.7038,407.0742 " fill="none" id="pantries-users" style="stroke:#181818;stroke-width:1.0;"/><line style="stroke:#181818;stroke-width:1.0;" x1="951.0889" x2="955.2716" y1="309.0516" y2="315.8711"/><line style="stroke:#181818;stroke-width:1.0;" x1="948.5316" x2="952.7142" y1="310.62" y2="317.4396"/><line style="stroke:#181818;stroke-width:1.0;" x1="949.7705" x2="956.59" y1="314.5526" y2="310.37"/><line style="stroke:#181818;stroke-width:1.0;" x1="764.685" x2="760.0619" y1="411.3941" y2="420.2613"/><line style="stroke:#181818;stroke-width:1.0;" x1="764.685" x2="754.8781" y1="411.3941" y2="409.4387"/><line style="stroke:#181818;stroke-width:1.0;" x1="764.685" x2="757.47" y1="411.3941" y2="414.85"/><ellipse cx="770.0963" cy="408.8022" fill="none" rx="4" ry="4" style="stroke:#181818;stroke-width:1.0;"/></g><!--link pantries to ingredients--><g id="link_pantries_ingredients"><path codeLine="132" d="M1040.71,329.13 C1040.71,486.06 1040.71,848.03 1040.71,985.9 " fill="none" id="pantries-ingredients" style="stroke:#181818;stroke-width:1.0;"/><line style="stroke:#181818;stroke-width:1.0;" x1="1036.71" x2="1044.71" y1="325.13" y2="325.13"/><line style="stroke:#181818;stroke-width:1.0;" x1="1036.71" x2="1044.71" y1="328.13" y2="328.13"/><line style="stroke:#181818;stroke-width:1.0;" x1="1040.71" x2="1040.71" y1="329.13" y2="321.13"/><line style="stroke:#181818;stroke-width:1.0;" x1="1040.71" x2="1046.71" y1="995.9" y2="1003.9"/><line style="stroke:#181818;stroke-width:1.0;" x1="1040.71" x2="1034.71" y1="995.9" y2="1003.9"/><line style="stroke:#181818;stroke-width:1.0;" x1="1040.71" x2="1040.71" y1="995.9" y2="1003.9"/><ellipse cx="1040.71" cy="989.9" fill="none" rx="4" ry="4" style="stroke:#181818;stroke-width:1.0;"/></g><!--link recipe_suggestions to users--><g id="link_recipe_suggestions_users"><path codeLine="133" d="M336.3991,315.6665 C342.2691,318.7565 341.01,318.07 346.71,321 C409.47,353.27 464.3411,379.849 521.6911,406.909 " fill="none" id="recipe_suggestions-users" style="stroke:#181818;stroke-width:1.0;"/><line style="stroke:#181818;stroke-width:1.0;" x1="330.9963" x2="334.7228" y1="317.3428" y2="310.2637"/><line style="stroke:#181818;stroke-width:1.0;" x1="333.651" x2="337.3774" y1="318.7402" y2="311.6611"/><line style="stroke:#181818;stroke-width:1.0;" x1="336.3991" x2="329.32" y1="315.6665" y2="311.94"/><line style="stroke:#181818;stroke-width:1.0;" x1="530.7349" x2="540.5303" y1="411.1762" y2="409.1637"/><line style="stroke:#181818;stroke-width:1.0;" x1="530.7349" x2="535.4097" y1="411.1762" y2="420.0163"/><line style="stroke:#181818;stroke-width:1.0;" x1="530.7349" x2="537.97" y1="411.1762" y2="414.59"/><ellipse cx="525.3086" cy="408.6159" fill="none" rx="4" ry="4" style="stroke:#181818;stroke-width:1.0;"/></g><!--link recipe_suggestions to recipes--><g id="link_recipe_suggestions_recipes"><path codeLine="134" d="M234.8845,320.2073 C246.6545,396.8373 263.4763,506.2688 276.9763,594.1288 " fill="none" id="recipe_suggestions-recipes" style="stroke:#181818;stroke-width:1.0;"/><line style="stroke:#181818;stroke-width:1.0;" x1="230.3236" x2="238.2309" y1="316.8609" y2="315.6464"/><line style="stroke:#181818;stroke-width:1.0;" x1="230.7791" x2="238.6863" y1="319.8261" y2="318.6116"/><line style="stroke:#181818;stroke-width:1.0;" x1="234.8845" x2="233.67" y1="320.2073" y2="312.3"/><line style="stroke:#181818;stroke-width:1.0;" x1="278.495" x2="285.6404" y1="604.0128" y2="611.0088"/><line style="stroke:#181818;stroke-width:1.0;" x1="278.495" x2="273.7796" y1="604.0128" y2="612.8312"/><line style="stroke:#181818;stroke-width:1.0;" x1="278.495" x2="279.71" y1="604.0128" y2="611.92"/><ellipse cx="277.5838" cy="598.0824" fill="none" rx="4" ry="4" style="stroke:#181818;stroke-width:1.0;"/></g><!--SRC=[hLNRQXin47tVhn1vQKjYI0D-yTisSQbfd0JNX48fGjaTsmFohYffqvga_rv9UucqjzIG5nlFcSkPevanP1hrWPmK2gGw8KyH8QS4qnbPtAp9ZxklFurXCZ4VrY5ZUvYH-tXr-ILUlP-UVp1ss3FaByQFvyugc5A_SvdI7LEx5_HYEdMep3V8WGfCT26XWylSW0s9pux4XksH7-XMveK8iRzH15KNDd2q2vUvsuQNmgypcYhCulhscK220bvLjDsb2UPTFL9GYKIXCSzcP3t_lhOst6mmARW-j7C82O99PhsfHalIWCQEYehYWMCo8vzkRw_dyOrFkCc7uwozkXmUWGyAYTbMGehcvx4o6caor8EFRC5nOMtqw2ENhqDxADR8IzepKifgQZNkVRWh_QjWhiICNCql5ylusdHqTX7KtaDMlD5SACsafYdJ1hgArtExZbdg6uAwZ5DzU6Ke6wz1xIn_sXflP-lLR4pFfbQxsrEIiaEt0xNBXJ2FG3agVRI4YGIZIqgPDZkqMCw_hUFbtM1wYXhsJOtIyiOpKMsaJCoDXBHtAOM9b7Zy6UbZLIB3PE2FmEfgz0zGzPIgs6v1MR-6LaZX_vw_d3PKoYhkBI9DyYBJtitQiCTSeYNa2VIEh82pn900PMPUIo2SAQBPW_cA8lTlHfwV9vFyoTry5Pg28z_oBYSxghvhityUsrZtcaHTK-tiU_N0xhX5xaOq9ailyjUkHfnRBr9tqHzL7u8etAYmOCywr0vXs9Ydtsqzp66PjhL7HM_YmjXXl6hv7m00]--></g></svg>